<?xml version="1.0" standalone="no"?>
<!DOCTYPE svg PUBLIC "-//W3C//DTD SVG 20010904//EN"
 "http://www.w3.org/TR/2001/REC-SVG-20010904/DTD/svg10.dtd">
<svg version="1.0" xmlns="http://www.w3.org/2000/svg"
 width="20px" height="20px" viewBox="0 0 64.000000 64.000000"
 preserveAspectRatio="xMidYMid meet">
<metadata>
Created by potrace 1.10, written by Peter Selinger 2001-2011
</metadata>
<g transform="translate(0.000000,64.000000) scale(0.100000,-0.100000)"
fill="#666666" stroke="none">
<path d="M177 463 c-16 -16 -4 -41 45 -90 l52 -53 -53 -54 c-54 -55 -64 -87
-27 -94 12 -3 38 15 72 49 l54 53 54 -53 c55 -54 87 -64 94 -27 3 12 -15 38
-49 72 l-53 54 53 54 c34 34 52 60 49 72 -7 37 -39 27 -94 -27 l-54 -53 -53
52 c-49 49 -74 61 -90 45z"/>
</g>
</svg>
