<svg version="1.0" xmlns="http://www.w3.org/2000/svg"
 width="108.000000pt" height="35.000000pt" viewBox="0 0 108.000000 35.000000"
 preserveAspectRatio="xMidYMid meet">
<metadata>
Created by potrace 1.10, written by Peter Selinger 2001-2011
</metadata>
<g transform="translate(0.000000,35.000000) scale(0.100000,-0.100000)"
fill="#000000" stroke="none">
<path d="M83 266 c-25 -22 -28 -30 -28 -91 0 -61 3 -69 28 -91 30 -25 57 -30
85 -15 13 7 17 23 17 63 0 53 0 53 -32 56 -25 2 -33 -1 -33 -12 0 -9 9 -16 20
-16 16 0 20 -7 20 -35 0 -31 -3 -35 -25 -35 -37 0 -59 40 -53 95 7 60 23 78
65 72 23 -4 33 -2 33 8 0 32 -60 33 -97 1z"/>
<path d="M540 246 c0 -41 -2 -46 -23 -46 -34 0 -47 -19 -47 -71 0 -55 12 -67
63 -67 l38 0 -3 111 c-2 77 -7 112 -15 115 -9 2 -13 -10 -13 -42z m-2 -114 c3
-36 0 -42 -16 -42 -31 0 -44 54 -20 78 20 20 33 8 36 -36z"/>
<path d="M990 271 c0 -11 -8 -22 -17 -24 -15 -4 -15 -5 -2 -6 9 0 21 -11 27
-23 l11 -23 0 22 c1 12 9 24 19 26 16 4 16 5 0 6 -11 1 -18 9 -18 21 0 11 -4
20 -10 20 -5 0 -10 -9 -10 -19z"/>
<path d="M907 266 c-7 -19 11 -32 24 -19 6 6 5 14 -4 22 -12 9 -16 8 -20 -3z"/>
<path d="M942 210 c-7 -12 -16 -18 -21 -16 -4 3 -40 -28 -79 -69 -42 -42 -67
-77 -61 -80 10 -7 189 161 189 177 0 15 -15 8 -28 -12z"/>
<path d="M250 202 c-63 -19 -47 -148 18 -140 38 4 59 46 47 93 -10 38 -35 57
-65 47z m34 -38 c11 -28 6 -61 -10 -75 -13 -10 -17 -10 -25 2 -10 16 -12 73
-2 82 11 12 31 7 37 -9z"/>
<path d="M380 202 c-40 -12 -53 -78 -24 -120 17 -25 56 -29 74 -7 14 16 17 85
6 104 -11 17 -39 29 -56 23z m34 -38 c16 -42 -7 -96 -34 -79 -11 7 -14 78 -3
88 11 12 31 7 37 -9z"/>
<path d="M611 191 c-25 -25 -19 -45 20 -61 29 -13 38 -33 18 -46 -6 -3 -16 -1
-22 5 -15 15 -37 14 -37 -3 0 -27 69 -36 90 -11 18 22 8 47 -29 72 -27 18 -30
24 -17 29 9 3 23 1 30 -5 16 -13 29 -1 18 16 -15 22 -51 24 -71 4z"/>
<path d="M970 185 c0 -9 5 -15 11 -13 6 2 11 8 11 13 0 5 -5 11 -11 13 -6 2
-11 -4 -11 -13z"/>
</g>
</svg>
