<svg xmlns="http://www.w3.org/2000/svg" viewBox="0 0 121.07 31.86"><defs><style>.cls-1{fill:#001010;}.cls-2{fill:#e4966e;}.cls-3{fill:#ed7ea3;}.cls-4{fill:#101010;}.cls-5{fill:#f5cd1e;}</style></defs><title>ourGoods</title><g id="레이어_2" data-name="레이어 2"><g id="레이어_1-2" data-name="레이어 1"><path class="cls-1" d="M6.86,7.86A7.93,7.93,0,0,1,8,9.62a11.31,11.31,0,0,1,.79,2.07,13.32,13.32,0,0,1,.38,2.17A12.15,12.15,0,0,1,9.2,16,7.28,7.28,0,0,1,8.63,18a8,8,0,0,1-1.22,2,4.9,4.9,0,0,1-1.76,1.3,3.32,3.32,0,0,1-2.21.17,3.6,3.6,0,0,1-1.67-.86A4.83,4.83,0,0,1,.7,19.16a6.6,6.6,0,0,1-.57-1.81A8.65,8.65,0,0,1,0,15.47a10.91,10.91,0,0,1,.93-4A5.55,5.55,0,0,1,3.72,8.67a1.53,1.53,0,0,1,.45-.76A2.24,2.24,0,0,1,5,7.41a1.78,1.78,0,0,1,1-.07A1.47,1.47,0,0,1,6.86,7.86ZM4.2,18.38a1.31,1.31,0,0,0,1-.48,3,3,0,0,0,.55-1,4.32,4.32,0,0,0,.22-1.19,10.42,10.42,0,0,0,0-1.14,8,8,0,0,0-.81-3.19l-.33.24a1.61,1.61,0,0,0-.71.64,4.33,4.33,0,0,0-.46,1,5.94,5.94,0,0,0-.21,1.15c0,.38-.05.71-.05,1a10.9,10.9,0,0,0,.07,1.14,3.78,3.78,0,0,0,.31,1.09,2.31,2.31,0,0,0,.34.5c.12.15.17.22.14.22h0Z"/><path class="cls-1" d="M11.53,15.47c-.07-.73-.12-1.47-.17-2.23A12.53,12.53,0,0,1,11.43,11c.07-.44.14-.88.22-1.31A7.41,7.41,0,0,1,12,8.38,1,1,0,0,1,12.46,8a2.67,2.67,0,0,1,.69-.19,2,2,0,0,1,.73,0,.82.82,0,0,1,.5.33,3,3,0,0,1,.5,1.81c0,.8,0,1.49,0,2.1s0,1.54.07,2.45a6.46,6.46,0,0,0,.5,2.31,2,2,0,0,0,.52.64,1.17,1.17,0,0,0,.81.17A1.35,1.35,0,0,0,18,16.9a5.94,5.94,0,0,0,.71-1.71,15.61,15.61,0,0,0,.38-2,15.23,15.23,0,0,0,.12-1.69c0-.32,0-.69-.05-1.12a6.12,6.12,0,0,1,0-1.22,1.8,1.8,0,0,1,.4-1,1.35,1.35,0,0,1,1.1-.41,1.58,1.58,0,0,1,.92.19,1.1,1.1,0,0,1,.5.48,7.1,7.1,0,0,1,.27,1.81c0,.67,0,1.27,0,1.81s0,1.37-.12,2.21A7.76,7.76,0,0,1,22,16c-.25.67-.48,1.32-.69,2A3.74,3.74,0,0,1,20,19.71a4.91,4.91,0,0,1-2.76,1.09,5,5,0,0,1-2.71-.54,5.79,5.79,0,0,1-2.1-1.88A5.28,5.28,0,0,1,11.53,15.47Z"/><path class="cls-1" d="M37.37,10a1.28,1.28,0,0,1-.57,1.12,6.9,6.9,0,0,1-1.19.55,4.83,4.83,0,0,0-1.36.71,9.41,9.41,0,0,0-1.16.95c-.29.32-.54.59-.76.81l-.65.64c-.2.21-.41.44-.62.69s-.43.57-.69,1a4.73,4.73,0,0,0-.45.88c-.14.36-.28.73-.4,1.11s-.24.77-.34,1.15-.17.71-.23,1a2.13,2.13,0,0,1-.27.59.58.58,0,0,1-.54.26,7.36,7.36,0,0,1-.84-.14,1.88,1.88,0,0,1-.76-.38,2,2,0,0,1-.57-.81,3.92,3.92,0,0,1-.21-1.43c0-.5,0-1.08,0-1.71s0-1.29-.07-1.95,0-1.32,0-1.95V11.33L25.71,10c0-.44.08-.89.14-1.33s.07-.67.1-1a2.25,2.25,0,0,1,.33-.91l.33-.31a1.06,1.06,0,0,1,.53-.26,1.17,1.17,0,0,1,.71.14.93.93,0,0,1,.43.43c0,.19.08.47.14.83s.13.74.19,1.12.12.76.17,1.15a7.13,7.13,0,0,1,.07.9c0,.22.07.55.1,1s.08.83.14,1.21a18.25,18.25,0,0,0,1.47-1.45,9.83,9.83,0,0,1,1.67-1.45,7.53,7.53,0,0,1,1.5-.86,13.76,13.76,0,0,1,1.64-.57,2.36,2.36,0,0,1,1.45.07C37.25,8.91,37.43,9.33,37.37,10Z"/><path class="cls-1" d="M67.63,31.61a2.06,2.06,0,0,1-.86.24,5.55,5.55,0,0,1-1.21-.05,5.32,5.32,0,0,1-1.19-.33,1.19,1.19,0,0,1-.7-.67c-.25-.64-.23-1.1.08-1.38a2,2,0,0,1,1.35-.48,1.32,1.32,0,0,0,1.12-.62,4.89,4.89,0,0,0,.72-1.59,14.14,14.14,0,0,0,.38-2.14c.07-.78.12-1.54.12-2.29s0-1.42,0-2-.07-1.09-.1-1.41a9.54,9.54,0,0,1-1.85.88,2.3,2.3,0,0,1-2-.21,4.36,4.36,0,0,1-1.76-1.69A6.22,6.22,0,0,1,61,15.47a6.42,6.42,0,0,1,0-2,8.08,8.08,0,0,1,.59-2A7,7,0,0,1,62.7,9.79a4.27,4.27,0,0,1,1.59-1.17,4.55,4.55,0,0,1,2-.36A2.77,2.77,0,0,1,68.15,9a.42.42,0,0,0,.26,0,1.05,1.05,0,0,0,.26-.07.92.92,0,0,1,.88,0,1.49,1.49,0,0,1,.57.62,4.06,4.06,0,0,1,.36.88l.24.76a25.16,25.16,0,0,1,.67,3.93,38.18,38.18,0,0,1,.14,4.14,40.57,40.57,0,0,1-.31,4.12q-.27,2-.69,3.9a10.11,10.11,0,0,1-.93,2.52A4.1,4.1,0,0,1,67.63,31.61ZM66,15.71a10.32,10.32,0,0,0,.81-.81,4.21,4.21,0,0,0,.73-1.9c0-.57-.32-1.08-1.11-1.52a1.21,1.21,0,0,0-1.22-.1,2.21,2.21,0,0,0-.83.9,5.09,5.09,0,0,0-.48,1.34,4.36,4.36,0,0,0-.09,1.19c0,.12,0,.3,0,.52A3.29,3.29,0,0,0,64,16a1,1,0,0,0,.29.48.46.46,0,0,0,.52,0A7.76,7.76,0,0,0,66,15.71Z"/><path class="cls-1" d="M80.14,7.86a7.93,7.93,0,0,1,1.17,1.76,11.27,11.27,0,0,1,.78,2.07,12.33,12.33,0,0,1,.38,2.17,10.42,10.42,0,0,1,0,2.09A6.69,6.69,0,0,1,81.9,18a7.67,7.67,0,0,1-1.21,2,4.9,4.9,0,0,1-1.76,1.3,3.32,3.32,0,0,1-2.21.17,3.55,3.55,0,0,1-1.67-.86A4.83,4.83,0,0,1,74,19.16a6.6,6.6,0,0,1-.57-1.81,8.65,8.65,0,0,1-.12-1.88,10.91,10.91,0,0,1,.93-4A5.55,5.55,0,0,1,77,8.67a1.46,1.46,0,0,1,.45-.76,2.24,2.24,0,0,1,.84-.5,1.78,1.78,0,0,1,1-.07A1.5,1.5,0,0,1,80.14,7.86ZM77.48,18.38a1.31,1.31,0,0,0,1-.48,3,3,0,0,0,.55-1,4,4,0,0,0,.21-1.19,8.49,8.49,0,0,0,0-1.14,8,8,0,0,0-.81-3.19l-.33.24a1.63,1.63,0,0,0-.72.64,3.94,3.94,0,0,0-.45,1,5.94,5.94,0,0,0-.21,1.15c0,.38,0,.71,0,1a8.72,8.72,0,0,0,.07,1.14A3.78,3.78,0,0,0,77,17.66a2.71,2.71,0,0,0,.33.5c.13.15.18.22.15.22h0Z"/><path class="cls-1" d="M91.61,7.86a7.93,7.93,0,0,1,1.17,1.76,11.27,11.27,0,0,1,.78,2.07,12.33,12.33,0,0,1,.38,2.17,10.42,10.42,0,0,1,0,2.09A6.69,6.69,0,0,1,93.37,18a7.67,7.67,0,0,1-1.21,2,4.9,4.9,0,0,1-1.76,1.3,3.32,3.32,0,0,1-2.21.17,3.55,3.55,0,0,1-1.67-.86,4.83,4.83,0,0,1-1.07-1.45,6.6,6.6,0,0,1-.57-1.81,8.65,8.65,0,0,1-.12-1.88,10.91,10.91,0,0,1,.93-4,5.55,5.55,0,0,1,2.78-2.85,1.46,1.46,0,0,1,.45-.76,2.24,2.24,0,0,1,.84-.5,1.78,1.78,0,0,1,1-.07A1.5,1.5,0,0,1,91.61,7.86ZM89,18.38a1.32,1.32,0,0,0,1-.48,3,3,0,0,0,.55-1,4,4,0,0,0,.21-1.19,8.49,8.49,0,0,0,0-1.14,8,8,0,0,0-.81-3.19l-.33.24a1.63,1.63,0,0,0-.72.64,3.94,3.94,0,0,0-.45,1,5.94,5.94,0,0,0-.21,1.15c0,.38,0,.71,0,1a8.72,8.72,0,0,0,.07,1.14,3.78,3.78,0,0,0,.31,1.09,2.71,2.71,0,0,0,.33.5c.13.15.18.22.15.22h0Z"/><path class="cls-1" d="M105.6,19a3.18,3.18,0,0,1-.85,1c-.38.3-.76.58-1.14.83a3.72,3.72,0,0,1-1.22.58,5.56,5.56,0,0,1-1.4.19,4,4,0,0,1-1.38-.24,2.64,2.64,0,0,1-1.1-.72,5.1,5.1,0,0,1-1.35-2.4,5.69,5.69,0,0,1,0-2.69,6.24,6.24,0,0,1,1.09-2.71,9.72,9.72,0,0,1,2.1-2.1,5.6,5.6,0,0,1,2.52-1,3.83,3.83,0,0,1,.6-.05,1,1,0,0,1,.59.19c.19.1.3,0,.33-.19.1-.86.15-1.72.17-2.59a21.68,21.68,0,0,1,.22-2.65q0-.57.09-1.23c0-.45.08-.88.14-1.29a4.23,4.23,0,0,1,.31-1.07A1.54,1.54,0,0,1,106,.1a1,1,0,0,1,.84,0,1.68,1.68,0,0,1,.59.47,2.63,2.63,0,0,1,.38.67,1.51,1.51,0,0,1,.14.55,8.27,8.27,0,0,1,.08,1c0,.41,0,.86.07,1.33s0,.82,0,1.12,0,.64,0,1q0,1.24,0,2.55c0,.87,0,1.74,0,2.59,0,.16,0,.65,0,1.45s0,1.69.07,2.62.07,1.81.1,2.62,0,1.29,0,1.45a1.28,1.28,0,0,1-.14,1,1.5,1.5,0,0,1-.76.43.93.93,0,0,1-.59.07.68.68,0,0,1-.36-.26,1.69,1.69,0,0,1-.24-.41c-.06-.14-.11-.24-.14-.3Zm-1.47-3.91a8.84,8.84,0,0,0,.19-1.38,1.68,1.68,0,0,0-.14-1l-.12-.07a.77.77,0,0,1-.17-.07.45.45,0,0,0-.19-.05,2.19,2.19,0,0,0-1.12.36,4.55,4.55,0,0,0-1.14,1,6.91,6.91,0,0,0-.93,1.45A5.3,5.3,0,0,0,100,17c0,.1,0,.26,0,.48a1.63,1.63,0,0,0,.17.62,1.55,1.55,0,0,0,.38.5.72.72,0,0,0,.66.12,2.39,2.39,0,0,0,.62-.24,1,1,0,0,0,.48-.38c.28-.29.52-.55.71-.79a4.79,4.79,0,0,0,.48-.69,4.28,4.28,0,0,0,.31-.69C104,15.74,104,15.44,104.13,15.09Z"/><path class="cls-1" d="M118.22,8.43l-1.84.38a2.27,2.27,0,0,0-1.21.57,1.41,1.41,0,0,0-.31,1.26,3.09,3.09,0,0,0,.67,1.24,7.78,7.78,0,0,0,1.12,1.1c.41.33.74.61,1,.83s.8.7,1.16,1.07a6.54,6.54,0,0,1,1,1.36,2.25,2.25,0,0,1,.3,1,3,3,0,0,1-.09.95,3.6,3.6,0,0,1-.33.83,6.13,6.13,0,0,1-.36.57,3.3,3.3,0,0,1-.93.86,9.87,9.87,0,0,1-1.59.88,14.18,14.18,0,0,1-1.93.69,7.23,7.23,0,0,1-1.93.29,6.5,6.5,0,0,1-1.59-.17,1.69,1.69,0,0,1-1-.78,1.39,1.39,0,0,1-.21-.74,1.51,1.51,0,0,1,.12-.79c.09-.19.31-.26.64-.21a6,6,0,0,0,.88.07,9,9,0,0,0,1.38-.12,7.53,7.53,0,0,0,1.45-.38,6.59,6.59,0,0,0,1.22-.59,1.83,1.83,0,0,0,.71-.77c.19-.44,0-.9-.47-1.38-.29-.28-.58-.54-.86-.78s-.59-.49-.91-.74c-.47-.38-.92-.75-1.35-1.12a7.35,7.35,0,0,1-1.22-1.35,2.93,2.93,0,0,1-.45-1.31,3.93,3.93,0,0,1,.12-1.45A5.64,5.64,0,0,1,112,8.38a4.13,4.13,0,0,1,.83-1,5.86,5.86,0,0,1,1.26-.77A12.67,12.67,0,0,1,115.58,6a11,11,0,0,1,1.54-.35c.51-.08.94-.14,1.29-.17a3.18,3.18,0,0,1,.71,0,3.28,3.28,0,0,1,.83.14,1.92,1.92,0,0,1,.72.38,1.06,1.06,0,0,1,.35.74.83.83,0,0,1-.19.9,1.74,1.74,0,0,1-1,.52C119.31,8.24,118.79,8.33,118.22,8.43Z"/><path class="cls-2" d="M56.08,13.35l-3,0a3,3,0,0,0,.17-.37A11,11,0,0,0,54,10.17s0,0,0,0a3.53,3.53,0,0,1,.21.32L55,11.64C55.36,12.21,55.72,12.78,56.08,13.35Z"/><path class="cls-3" d="M53.41,10a.35.35,0,0,0,0,.18,10.26,10.26,0,0,1-.59,2.32l-.12.26a.41.41,0,0,1-.11-.07c-.29-.18-.56-.36-.83-.56a13.71,13.71,0,0,1-1.66-1.48c-.17-.17-.34-.42-.53-.65h1.85l1.27,0C52.88,10,53.15,10,53.41,10Z"/><path class="cls-4" d="M56.87,13.18c-.24-.39-.49-.78-.74-1.16-.45-.71-.87-1.44-1.35-2.11A1.93,1.93,0,0,0,53,9.2l-2.66,0-6.12,0a.41.41,0,0,0-.37.21.47.47,0,0,0-.25.18c-.8,1.14-1.67,2.26-2.42,3.44a.92.92,0,0,0,.11,1.26c.52.54,1.1,1,1.65,1.54l6.35,5.93h0l0,0a.39.39,0,0,0,.1.08l.06,0,.08,0h.09s0,0,0,0a.47.47,0,0,0,.32-.21s0,0,0,0l0-.06a.32.32,0,0,1-.09.16v0l0,0,3.87-3.87L55.72,16l1-1a1.5,1.5,0,0,0,.55-.9A1.59,1.59,0,0,0,56.87,13.18Zm-3.46-.34a9.28,9.28,0,0,0,.64-2.36s0,0,0,0a2.53,2.53,0,0,1,.18.27l.65,1,.93,1.46-2.54,0A2.22,2.22,0,0,0,53.41,12.84Zm-2-2.75h1.15l.7,0a.69.69,0,0,0,0,.17,9.51,9.51,0,0,1-.53,2.1l-.11.24-.1-.07q-.39-.24-.75-.51a12,12,0,0,1-1.51-1.34c-.15-.15-.3-.38-.48-.59Zm-2.85.9a4.78,4.78,0,0,1,.32-.44l.07.06c.07.08.13.16.2.23s.21.24.32.35a10.12,10.12,0,0,0,.88.85,12.64,12.64,0,0,0,1.43,1.1l-4.9-.06c.17-.2.31-.42.44-.58l.91-1.1Zm-.4-.93-.57.7c-.47.58-.93,1.15-1.41,1.72a.27.27,0,0,1-.07.08,3.74,3.74,0,0,0-.26-.36,8.78,8.78,0,0,1-.44-.79A8.39,8.39,0,0,1,44.86,10ZM42.21,13,44,10.43a10.39,10.39,0,0,0,.57,1.43,7.11,7.11,0,0,0,.65,1.19l-3,0Zm1.93,2.66-1.45-1.35-.42-.4,3.33,0a22,22,0,0,0,1.63,3.72l.84,1.66Zm5,5.87.06.1A.21.21,0,0,1,49.17,21.54ZM49.4,20l-1.32-2.63A23.83,23.83,0,0,1,46.55,14l5,.06A23.1,23.1,0,0,0,49.4,20Zm6.76-5.75a2.81,2.81,0,0,1-.39.38l-.89.89-1.71,1.71L50.29,20.1a22.21,22.21,0,0,1,2.24-6l3.3,0a.38.38,0,0,0,.39-.24A.33.33,0,0,1,56.16,14.24Z"/><path class="cls-3" d="M48.07,19.34l-3.93-3.67-1.45-1.35-.42-.4,3.33,0a22,22,0,0,0,1.63,3.72Z"/><path class="cls-2" d="M51.52,14A23.1,23.1,0,0,0,49.4,20l-1.32-2.63A23.83,23.83,0,0,1,46.55,14Z"/><path class="cls-3" d="M56.16,14.24a2.81,2.81,0,0,1-.39.38l-.89.89-1.71,1.71L50.29,20.1a22.21,22.21,0,0,1,2.24-6l3.3,0a.38.38,0,0,0,.39-.24A.33.33,0,0,1,56.16,14.24Z"/><path class="cls-2" d="M51.75,13.14l-4.9-.06c.17-.2.31-.42.44-.58l.91-1.1.33-.41a4.78,4.78,0,0,1,.32-.44l.07.06c.07.08.13.16.2.23s.21.24.32.35a10.12,10.12,0,0,0,.88.85A12.64,12.64,0,0,0,51.75,13.14Z"/><path class="cls-2" d="M45.25,13.05l-3,0h0L44,10.43a10.39,10.39,0,0,0,.57,1.43A7.11,7.11,0,0,0,45.25,13.05Z"/><path class="cls-3" d="M48.13,10.06l-.57.7c-.47.58-.93,1.15-1.41,1.72a.27.27,0,0,1-.07.08,3.74,3.74,0,0,0-.26-.36,8.78,8.78,0,0,1-.44-.79A8.39,8.39,0,0,1,44.86,10Z"/><path class="cls-4" d="M49.23,21.64a.21.21,0,0,1-.06-.1Z"/><path class="cls-4" d="M50,21.65a.22.22,0,0,1,0,.08v0a0,0,0,0,0,0,0h0l-.07,0a.05.05,0,0,1,0,0l-.08,0h-.05A.47.47,0,0,0,50,21.65Z"/><path class="cls-5" d="M52.17,5.85l-.39,1.89a.11.11,0,0,1,0,.06h-5.3a2.72,2.72,0,0,0-.3,0A7.58,7.58,0,0,0,46,7c-.07-.28-.13-.56-.19-.84l.81.25c.44.14,1,.47,1.44.07a5.72,5.72,0,0,0,.83-1.59c.17-.36.34-.73.51-1.08.2.3.38.6.56.92s.48,1.08.89,1.34A1.07,1.07,0,0,0,52.17,5.85Z"/><path class="cls-4" d="M53.06,5h0a.41.41,0,0,0-.63-.23,6.83,6.83,0,0,0-.92.68c-.09.07-.17.19-.3.18s-.11-.08-.18-.2a22.28,22.28,0,0,0-1.35-1.84.46.46,0,0,0-.71.09c-.2.37-.41.73-.61,1.09l-.31.54a3.2,3.2,0,0,0-.3.54.56.56,0,0,1,0,.08l-.12,0L47,5.72,45.74,5.4a.44.44,0,0,0-.54.31h0a.46.46,0,0,0,0,.29c.13.52.27,1,.42,1.57s.23.89.68,1a6,6,0,0,0,1.47,0H51c.41,0,1,.13,1.3-.27a4.38,4.38,0,0,0,.42-1.4c.13-.54.26-1.09.4-1.63A.43.43,0,0,0,53.06,5ZM51.59,7.66v0H46.85a2.35,2.35,0,0,0-.27,0,4.89,4.89,0,0,0-.19-.62c-.06-.21-.12-.41-.17-.62l.72.19c.4.1.93.35,1.29,0A4.41,4.41,0,0,0,49,5.51l.45-.81c.18.23.34.45.5.69s.43.8.79,1a1.11,1.11,0,0,0,1.23-.14C51.83,6.72,51.71,7.19,51.59,7.66Z"/></g></g></svg>