<svg xmlns="http://www.w3.org/2000/svg" viewBox="0 0 31.64 35.84"><defs><style>.cls-1{fill:#e4966e;}.cls-2{fill:#ed7ea3;}.cls-3{fill:#101010;}.cls-4{fill:#f5cd1e;}</style></defs><title>ourGoods-icon3</title><g id="레이어_2" data-name="레이어 2"><g id="레이어_1-2" data-name="레이어 1"><path class="cls-1" d="M29.32,19.24l-5.67-.08c.13-.24.22-.5.32-.72a20.66,20.66,0,0,0,1.43-5.28v-.07c.14.2.26.41.39.61L27.25,16Z"/><path class="cls-2" d="M24.47,12.68a1,1,0,0,0-.12.37,20.83,20.83,0,0,1-1.21,4.78c0,.06-.14.32-.24.55l-.24-.15c-.59-.37-1.15-.76-1.7-1.17a27.5,27.5,0,0,1-3.43-3c-.34-.35-.7-.86-1.09-1.33l3.82,0,2.62,0C23.37,12.73,23.93,12.67,24.47,12.68Z"/><path class="cls-3" d="M31,19l-1.45-2.27c-.87-1.36-1.68-2.79-2.63-4.1s-2.05-1.38-3.5-1.39l-5.18,0L6.3,11.07a.79.79,0,0,0-.72.4,1,1,0,0,0-.49.36C3.53,14,1.85,16.22.39,18.51A1.77,1.77,0,0,0,.61,21c1,1.05,2.14,2,3.2,3L16.16,35.51h0l.07.07a1.21,1.21,0,0,0,.2.14.27.27,0,0,0,.11.05.33.33,0,0,0,.16,0l.17,0h.07a1,1,0,0,0,.63-.41s0,0,0,0a.41.41,0,0,0,.07-.11.89.89,0,0,1-.19.31l0,0s0,0,0,0L25,28.05l3.71-3.7,1.85-1.86a2.87,2.87,0,0,0,1.07-1.75A3.08,3.08,0,0,0,31,19Zm-6.73-.67a18.24,18.24,0,0,0,1.24-4.59s0,0,0-.06c.13.17.23.35.35.53l1.26,2L28.9,19,24,18.91A5.78,5.78,0,0,0,24.24,18.28Zm-4-5.35,2.25,0c.41,0,.9,0,1.36,0a.75.75,0,0,0-.1.32,17.55,17.55,0,0,1-1,4.09l-.21.47-.2-.13c-.5-.32-1-.65-1.45-1A23.45,23.45,0,0,1,18,14c-.29-.29-.59-.73-.93-1.14Zm-5.53,1.75c.15-.2.39-.59.61-.85l.14.11.39.46c.2.23.4.45.61.67.54.58,1.12,1.14,1.72,1.67A26.22,26.22,0,0,0,21,18.87l-9.53-.13c.33-.39.61-.81.87-1.12.58-.71,1.17-1.42,1.75-2.14ZM14,12.88l-1.11,1.36c-.91,1.12-1.81,2.24-2.74,3.35l-.13.15c-.11-.22-.42-.55-.52-.71a15.25,15.25,0,0,1-.85-1.53,15.89,15.89,0,0,1-1-2.67ZM2.45,18.62C3.63,17,4.82,15.27,6,13.59a21.69,21.69,0,0,0,1.1,2.8A15.08,15.08,0,0,0,8.36,18.7l-5.9-.08Zm3.76,5.17L3.39,21.16l-.83-.78L9,20.47a42.62,42.62,0,0,0,3.17,7.23c.54,1.08,1.08,2.16,1.63,3.24ZM16,35.2l.1.21A.58.58,0,0,1,16,35.2Zm.45-3c-.87-1.7-1.72-3.41-2.58-5.12a43.57,43.57,0,0,1-3-6.58l9.65.14A44.53,44.53,0,0,0,16.44,32.19ZM29.57,21a7.31,7.31,0,0,1-.74.73L27.1,23.47l-3.33,3.34-5.6,5.6a42.42,42.42,0,0,1,4.36-11.76l6.41.09a.77.77,0,0,0,.76-.48A.67.67,0,0,1,29.57,21Z"/><path class="cls-2" d="M13.84,30.94,6.21,23.79,3.39,21.16l-.83-.78L9,20.47a42.62,42.62,0,0,0,3.17,7.23C12.75,28.78,13.29,29.86,13.84,30.94Z"/><path class="cls-1" d="M20.55,20.63a44.53,44.53,0,0,0-4.11,11.56c-.87-1.7-1.72-3.41-2.58-5.12a43.57,43.57,0,0,1-3-6.58Z"/><path class="cls-2" d="M29.57,21a7.31,7.31,0,0,1-.74.73L27.1,23.47l-3.33,3.34-5.6,5.6a42.42,42.42,0,0,1,4.36-11.76l6.41.09a.77.77,0,0,0,.76-.48A.67.67,0,0,1,29.57,21Z"/><path class="cls-1" d="M21,18.87l-9.53-.13c.33-.39.61-.81.87-1.12.58-.71,1.17-1.42,1.75-2.14l.66-.8c.15-.2.39-.59.61-.85l.14.11.39.46c.2.23.4.45.61.67.54.58,1.12,1.14,1.72,1.67A26.22,26.22,0,0,0,21,18.87Z"/><path class="cls-1" d="M8.36,18.7l-5.9-.08h0C3.63,17,4.82,15.27,6,13.59a21.69,21.69,0,0,0,1.1,2.8A15.08,15.08,0,0,0,8.36,18.7Z"/><path class="cls-2" d="M14,12.88l-1.11,1.36c-.91,1.12-1.81,2.24-2.74,3.35l-.13.15c-.11-.22-.42-.55-.52-.71a15.25,15.25,0,0,1-.85-1.53,15.89,15.89,0,0,1-1-2.67Z"/><path class="cls-3" d="M16.09,35.41a.58.58,0,0,1-.1-.21Z"/><path class="cls-3" d="M17.57,35.42a.91.91,0,0,1-.11.16l0,0s0,0,0,0l0,0a.74.74,0,0,1-.13.08.15.15,0,0,1-.08,0,.3.3,0,0,1-.15,0,.16.16,0,0,1-.1,0A1,1,0,0,0,17.57,35.42Z"/><path class="cls-4" d="M22,4.81c-.25,1.22-.5,2.45-.76,3.68a.35.35,0,0,1,0,.12l-.25,0H11c-.15,0-.4,0-.59,0A13,13,0,0,0,10,7c-.12-.55-.25-1.09-.36-1.64l1.57.5c.85.26,2,.92,2.78.14a11.78,11.78,0,0,0,1.6-3.12c.33-.7.66-1.41,1-2.11.38.59.73,1.18,1.09,1.8.49.86.91,2.1,1.7,2.62A2.08,2.08,0,0,0,22,4.81Z"/><path class="cls-3" d="M23.56,3V3a.82.82,0,0,0-1.23-.46,15.66,15.66,0,0,0-1.79,1.33c-.16.14-.33.37-.57.35s-.22-.15-.36-.38A42.11,42.11,0,0,0,17,.26.88.88,0,0,0,15.6.44l-1.19,2.1-.6,1.06a6.09,6.09,0,0,0-.59,1.05l-.09.16-.24-.07-1.15-.3L9.31,3.82a.83.83,0,0,0-1,.6h0a.83.83,0,0,0,0,.57C8.46,6,8.72,7,9,8.05c.22.75.43,1.72,1.31,2a11.88,11.88,0,0,0,2.86.05h6.3c.81,0,2,.24,2.54-.52a8.52,8.52,0,0,0,.8-2.73c.26-1.06.53-2.12.79-3.18A.88.88,0,0,0,23.56,3ZM20.69,8.2a.32.32,0,0,1,0,.09H11.47c-.14,0-.36,0-.53,0a8.6,8.6,0,0,0-.37-1.19c-.11-.41-.22-.81-.32-1.22l1.41.37c.76.19,1.79.69,2.49.1A7.8,7.8,0,0,0,15.59,4c.3-.52.59-1,.88-1.57.35.44.66.88,1,1.34.44.64.82,1.57,1.53,2a2.17,2.17,0,0,0,2.39-.28C21.15,6.37,20.92,7.28,20.69,8.2Z"/></g></g></svg>