<svg xmlns="http://www.w3.org/2000/svg" viewBox="0 0 30.88 35.03"><defs><style>.cls-1{fill:#f5cd1e;}.cls-2{fill:#001010;}.cls-3{fill:#101010;}</style></defs><title>ourGoods-icon2</title><g id="레이어_2" data-name="레이어 2"><g id="레이어_1-2" data-name="레이어 1"><path class="cls-1" d="M20.4,2.6c-.19.76-.38,1.52-.56,2.28a6,6,0,0,1-.58,2c-.39.55-1.23.38-1.81.38H12.94a8.77,8.77,0,0,1-2,0c-.63-.17-.78-.87-1-1.4-.21-.73-.4-1.46-.58-2.19a.62.62,0,0,1,0-.41h0a.61.61,0,0,1,.75-.43c.58.16,1.16.3,1.74.45l.82.21.18,0L13,3.33a5.09,5.09,0,0,1,.42-.75l.43-.76c.28-.5.57-1,.85-1.51a.63.63,0,0,1,1-.12,27.47,27.47,0,0,1,1.87,2.56c.1.17.1.26.26.27s.3-.15.41-.25a10.88,10.88,0,0,1,1.28-.95.58.58,0,0,1,.88.33,0,0,0,0,0,0,0A.64.64,0,0,1,20.4,2.6Z"/><path class="cls-2" d="M9.29,10.4a4,4,0,0,1,.6.91,5.64,5.64,0,0,1,.4,1.06,6.79,6.79,0,0,1,.2,1.11,6.37,6.37,0,0,1,0,1.07,3.59,3.59,0,0,1-.3,1.08,3.91,3.91,0,0,1-.62,1,2.47,2.47,0,0,1-.9.67,1.76,1.76,0,0,1-1.14.09A1.82,1.82,0,0,1,6.68,17a2.43,2.43,0,0,1-.55-.75,3.38,3.38,0,0,1-.3-.93,5.27,5.27,0,0,1-.06-1,5.74,5.74,0,0,1,.48-2,2.83,2.83,0,0,1,1.43-1.46.72.72,0,0,1,.23-.39,1.1,1.1,0,0,1,.43-.26.94.94,0,0,1,.5,0A.88.88,0,0,1,9.29,10.4ZM7.92,15.8a.72.72,0,0,0,.5-.24A1.38,1.38,0,0,0,8.7,15a1.78,1.78,0,0,0,.11-.61,3.65,3.65,0,0,0,0-.58,4.17,4.17,0,0,0-.41-1.64l-.17.12a.9.9,0,0,0-.37.33,1.81,1.81,0,0,0-.23.53,2.37,2.37,0,0,0-.11.58q0,.3,0,.51a3.81,3.81,0,0,0,0,.59,1.8,1.8,0,0,0,.16.56,1,1,0,0,0,.17.26c.06.07.09.11.07.11h0Z"/><path class="cls-2" d="M11.68,14.31c0-.37-.06-.76-.08-1.15a6.54,6.54,0,0,1,0-1.17c0-.23.07-.45.11-.67a3.72,3.72,0,0,1,.19-.65.45.45,0,0,1,.23-.22,1.29,1.29,0,0,1,.35-.1,1.2,1.2,0,0,1,.38,0,.41.41,0,0,1,.26.17,1.52,1.52,0,0,1,.25.93c0,.4,0,.76,0,1.07s0,.8,0,1.26A3.32,3.32,0,0,0,13.71,15a.92.92,0,0,0,.27.33.53.53,0,0,0,.41.09A.67.67,0,0,0,15,15a3,3,0,0,0,.37-.88,7.07,7.07,0,0,0,.19-1,8,8,0,0,0,.07-.86c0-.16,0-.36,0-.58a3.18,3.18,0,0,1,0-.62,1.07,1.07,0,0,1,.21-.5.68.68,0,0,1,.56-.21.85.85,0,0,1,.48.1.57.57,0,0,1,.26.25,3.64,3.64,0,0,1,.13.92c0,.35,0,.65,0,.93s0,.71-.06,1.14a3.77,3.77,0,0,1-.16.91c-.13.34-.25.68-.35,1a1.86,1.86,0,0,1-.65.88,2.46,2.46,0,0,1-1.42.56,2.54,2.54,0,0,1-1.39-.28,3,3,0,0,1-1.07-1A2.66,2.66,0,0,1,11.68,14.31Z"/><path class="cls-2" d="M24.94,11.5a.65.65,0,0,1-.29.58,5,5,0,0,1-.61.28,2.3,2.3,0,0,0-.69.36,3.76,3.76,0,0,0-.6.49l-.39.42q-.18.16-.33.33a2.72,2.72,0,0,0-.32.35,4.84,4.84,0,0,0-.36.49,2.32,2.32,0,0,0-.23.45l-.21.57c-.06.2-.12.39-.17.59s-.09.37-.12.51a1.26,1.26,0,0,1-.13.31.31.31,0,0,1-.28.13,3,3,0,0,1-.43-.07.91.91,0,0,1-.39-.2.92.92,0,0,1-.29-.41A1.84,1.84,0,0,1,19,16c0-.26,0-.56,0-.88l0-1c0-.35,0-.68,0-1v-.88c0-.22,0-.45.05-.68s0-.45.07-.68,0-.34,0-.49a1.42,1.42,0,0,1,.17-.47l.18-.15a.51.51,0,0,1,.26-.14.67.67,0,0,1,.37.07.51.51,0,0,1,.22.22c0,.1,0,.25.07.43s.07.38.1.58l.09.58c0,.2,0,.35,0,.47a3.93,3.93,0,0,1,.05.5c0,.22,0,.42.07.62a7.68,7.68,0,0,0,.76-.75,5.74,5.74,0,0,1,.86-.74,3.48,3.48,0,0,1,.77-.44,7.55,7.55,0,0,1,.84-.29,1.16,1.16,0,0,1,.74,0C24.88,10.94,25,11.16,24.94,11.5Z"/><path class="cls-2" d="M3.45,34.9A.88.88,0,0,1,3,35a3.34,3.34,0,0,1-.62,0,2.39,2.39,0,0,1-.61-.17.56.56,0,0,1-.35-.34c-.13-.33-.12-.56,0-.71a1,1,0,0,1,.7-.24.68.68,0,0,0,.57-.32,2.39,2.39,0,0,0,.37-.82,6.79,6.79,0,0,0,.19-1.1c0-.4.07-.79.07-1.17s0-.73,0-1.05,0-.56-.05-.72a4.88,4.88,0,0,1-.95.45,1.19,1.19,0,0,1-1-.11,2.36,2.36,0,0,1-.9-.87,3.59,3.59,0,0,1-.35-2.21,3.63,3.63,0,0,1,.3-1,3.33,3.33,0,0,1,.58-.89,2.14,2.14,0,0,1,.81-.6,2.27,2.27,0,0,1,1-.18,1.33,1.33,0,0,1,1,.35.21.21,0,0,0,.14,0,.4.4,0,0,0,.13,0,.48.48,0,0,1,.45,0,.82.82,0,0,1,.29.32,2.25,2.25,0,0,1,.19.45L5,24.4a12.7,12.7,0,0,1,.34,2,18.78,18.78,0,0,1,.08,2.12c0,.71-.07,1.41-.16,2.11a20,20,0,0,1-.36,2A4.89,4.89,0,0,1,4.47,34,2.1,2.1,0,0,1,3.45,34.9Zm-.83-8.15A4.16,4.16,0,0,0,3,26.33a2.25,2.25,0,0,0,.38-1c0-.29-.17-.55-.58-.78a.64.64,0,0,0-.62-.05,1.23,1.23,0,0,0-.43.47,2.62,2.62,0,0,0-.24.68,2,2,0,0,0-.05.61c0,.07,0,.16,0,.27a1.61,1.61,0,0,0,.06.33.56.56,0,0,0,.15.25.25.25,0,0,0,.27,0A4.81,4.81,0,0,0,2.62,26.75Z"/><path class="cls-2" d="M9.88,22.72a4.52,4.52,0,0,1,.59.9,5.28,5.28,0,0,1,.41,1.06,6.14,6.14,0,0,1,.19,1.11,4.87,4.87,0,0,1,0,1.08,3.5,3.5,0,0,1-.29,1.07,4,4,0,0,1-.62,1,2.72,2.72,0,0,1-.91.67,1.74,1.74,0,0,1-1.13.08,1.91,1.91,0,0,1-.86-.44,2.51,2.51,0,0,1-.55-.74,3.6,3.6,0,0,1-.29-.93,4,4,0,0,1-.06-1,5.53,5.53,0,0,1,.48-2,2.9,2.9,0,0,1,1.42-1.47.82.82,0,0,1,.24-.39,1.12,1.12,0,0,1,.42-.25,1,1,0,0,1,.5,0A.76.76,0,0,1,9.88,22.72ZM8.51,28.11a.65.65,0,0,0,.5-.24,1.8,1.8,0,0,0,.28-.51,2.12,2.12,0,0,0,.11-.61,5.66,5.66,0,0,0,0-.59A4.24,4.24,0,0,0,9,24.52l-.17.13a.72.72,0,0,0-.36.33,2.07,2.07,0,0,0-.24.52,4.08,4.08,0,0,0-.11.59c0,.19,0,.36,0,.51a3.9,3.9,0,0,0,0,.59,1.86,1.86,0,0,0,.15.56.94.94,0,0,0,.18.25c.06.08.08.11.07.11h0Z"/><path class="cls-2" d="M15.76,22.72a4.15,4.15,0,0,1,.6.9,5.24,5.24,0,0,1,.4,1.06,6.17,6.17,0,0,1,.2,1.11,6.49,6.49,0,0,1,0,1.08,3.5,3.5,0,0,1-.29,1.07A4.31,4.31,0,0,1,16,29a2.59,2.59,0,0,1-.9.67A1.76,1.76,0,0,1,14,29.7a1.87,1.87,0,0,1-.85-.44,2.51,2.51,0,0,1-.55-.74,3.25,3.25,0,0,1-.29-.93,4.62,4.62,0,0,1-.07-1,6,6,0,0,1,.48-2,2.92,2.92,0,0,1,1.43-1.47.79.79,0,0,1,.23-.39,1.16,1.16,0,0,1,.43-.25.94.94,0,0,1,.5,0A.77.77,0,0,1,15.76,22.72Zm-1.37,5.39a.67.67,0,0,0,.51-.24,1.8,1.8,0,0,0,.28-.51,2.52,2.52,0,0,0,.11-.61,5.53,5.53,0,0,0,0-.59,4,4,0,0,0-.41-1.64l-.17.13a.78.78,0,0,0-.37.33,2.05,2.05,0,0,0-.23.52,2.45,2.45,0,0,0-.11.59,4.92,4.92,0,0,0,0,.51,5.85,5.85,0,0,0,0,.59,2.23,2.23,0,0,0,.16.56,1.21,1.21,0,0,0,.17.25c.07.08.09.11.07.11h0Z"/><path class="cls-2" d="M22.94,28.43a1.57,1.57,0,0,1-.44.5,7.21,7.21,0,0,1-.58.43,1.82,1.82,0,0,1-.63.29,2.46,2.46,0,0,1-.72.1,2.16,2.16,0,0,1-.71-.12,1.34,1.34,0,0,1-.56-.37A2.54,2.54,0,0,1,18.61,28a2.93,2.93,0,0,1,0-1.38,3.17,3.17,0,0,1,.56-1.39,4.61,4.61,0,0,1,1.08-1.08,2.78,2.78,0,0,1,1.29-.53,1.55,1.55,0,0,1,.31,0,.51.51,0,0,1,.3.1c.1.05.16,0,.17-.1.05-.44.08-.88.09-1.33a9,9,0,0,1,.11-1.36c0-.19,0-.4,0-.63s0-.45.07-.66a1.77,1.77,0,0,1,.16-.55.74.74,0,0,1,.35-.35.54.54,0,0,1,.43,0,.81.81,0,0,1,.3.25,1.17,1.17,0,0,1,.2.34.8.8,0,0,1,.07.28,4.58,4.58,0,0,1,0,.49c0,.21,0,.44,0,.68s0,.42,0,.58,0,.33,0,.52c0,.43,0,.86,0,1.31s0,.89,0,1.33c0,.08,0,.33,0,.74s0,.87,0,1.35,0,.93,0,1.34,0,.67,0,.75a.64.64,0,0,1-.08.51.73.73,0,0,1-.39.22.49.49,0,0,1-.3,0,.36.36,0,0,1-.18-.14,1.07,1.07,0,0,1-.13-.21,1.13,1.13,0,0,0-.07-.15Zm-.75-2a4.73,4.73,0,0,0,.09-.71.82.82,0,0,0-.07-.51l-.06,0-.09,0a.17.17,0,0,0-.1,0,1.14,1.14,0,0,0-.57.18,2.53,2.53,0,0,0-.58.52,3.36,3.36,0,0,0-.48.74,3,3,0,0,0-.25.88c0,.05,0,.13,0,.25a.84.84,0,0,0,.08.31.86.86,0,0,0,.2.26.38.38,0,0,0,.34.06,1.93,1.93,0,0,0,.32-.12.5.5,0,0,0,.24-.2,4.26,4.26,0,0,0,.37-.4,3.14,3.14,0,0,0,.24-.35,1.89,1.89,0,0,0,.16-.36C22.09,26.76,22.14,26.61,22.19,26.43Z"/><path class="cls-2" d="M29.41,23l-.94.2a1.09,1.09,0,0,0-.62.29.73.73,0,0,0-.16.65,1.62,1.62,0,0,0,.34.63,4.4,4.4,0,0,0,.58.56l.51.43c.21.18.41.36.6.55a3.27,3.27,0,0,1,.52.7,1.2,1.2,0,0,1,.16.52,1.74,1.74,0,0,1-.22.92,2.61,2.61,0,0,1-.18.29,1.62,1.62,0,0,1-.48.44,5.2,5.2,0,0,1-.82.45,5.66,5.66,0,0,1-1,.35,3.61,3.61,0,0,1-1,.15,3.72,3.72,0,0,1-.82-.08.86.86,0,0,1-.53-.41.69.69,0,0,1-.11-.38,1.09,1.09,0,0,1,.06-.4c.05-.1.16-.13.33-.11a2.77,2.77,0,0,0,.46,0,4.62,4.62,0,0,0,.7-.06,3.77,3.77,0,0,0,.75-.2,3.58,3.58,0,0,0,.62-.3,1,1,0,0,0,.37-.39c.1-.23,0-.47-.25-.71a5.62,5.62,0,0,0-.44-.41l-.46-.37-.7-.58a3.83,3.83,0,0,1-.62-.69,1.41,1.41,0,0,1-.23-.68,2.3,2.3,0,0,1,.06-.74A3.14,3.14,0,0,1,26.2,23a2.13,2.13,0,0,1,.43-.54,2.55,2.55,0,0,1,.65-.39,6.62,6.62,0,0,1,.78-.3,6,6,0,0,1,.79-.18c.26,0,.48-.07.66-.08a2,2,0,0,1,.37,0,2,2,0,0,1,.42.08.93.93,0,0,1,.37.19.51.51,0,0,1,.18.38.46.46,0,0,1-.09.47.92.92,0,0,1-.54.26Z"/><path class="cls-1" d="M19.08,3.53c-.17.83-.34,1.65-.52,2.48a.24.24,0,0,0,0,.08H11.46c-.1,0-.27,0-.4,0-.05-.35-.2-.73-.28-1.08s-.18-.72-.25-1.09l1.08.33c.59.17,1.38.62,1.92.09a8,8,0,0,0,1.11-2.09c.23-.47.45-.94.67-1.41.27.39.51.79.76,1.2.34.58.63,1.41,1.18,1.76A1.46,1.46,0,0,0,19.08,3.53Z"/><path class="cls-3" d="M20.35,2.16h0a.58.58,0,0,0-.88-.33,11.77,11.77,0,0,0-1.28,1c-.11.1-.23.27-.4.25s-.17-.11-.27-.27A27.47,27.47,0,0,0,15.64.19a.64.64,0,0,0-1,.12c-.28.5-.56,1-.85,1.51l-.42.76a4,4,0,0,0-.43.75l-.06.11-.17,0-.83-.21-1.74-.45a.61.61,0,0,0-.75.43h0a.62.62,0,0,0,0,.41c.18.73.37,1.46.59,2.18.16.54.31,1.24.94,1.4a8.26,8.26,0,0,0,2,0h4.51c.58,0,1.42.18,1.81-.37a6,6,0,0,0,.58-1.95c.19-.76.37-1.52.56-2.28A.64.64,0,0,0,20.35,2.16ZM18.3,5.87a.25.25,0,0,0,0,.07H11.69c-.09,0-.25,0-.37,0a5.69,5.69,0,0,0-.27-.86c-.08-.29-.16-.57-.23-.87l1,.27c.55.14,1.28.49,1.79.07a5.79,5.79,0,0,0,1-1.66l.63-1.12c.25.31.47.63.7,1s.59,1.13,1.1,1.4a1.55,1.55,0,0,0,1.71-.2C18.63,4.56,18.47,5.22,18.3,5.87Z"/></g></g></svg>